[2026-03-14 19:16:29] [INFO] Jarvis Desktop launcher started.
[2026-03-14 19:16:29] [INFO] Runtime log path: C:\Jarvis\logs\runtime_2026-03-14_19-16-29.txt
[2026-03-14 19:16:29] [INFO] Launcher executable: C:\Users\anden\AppData\Local\Python\pythoncore-3.14-64\pythonw.exe
[2026-03-14 19:16:29] [INFO] Root directory: C:\Jarvis
[2026-03-14 19:16:29] [INFO] Target script: C:\Jarvis\jarvis_desktop_test.py
[2026-03-14 19:16:29] [INFO] Diagnostics script: C:\Jarvis\desktop\jarvis_diagnostics.pyw
[2026-03-14 19:16:29] [INFO] Recovery attempts allowed: 3
[2026-03-14 19:16:29] [INFO] Voice hook ready: C:\Jarvis\jarvis_voice.py
[2026-03-14 19:16:29] [INFO] Starting desktop renderer process. attempt=1
[2026-03-14 19:16:29] [INFO] Child executable: C:\Users\anden\AppData\Local\Python\pythoncore-3.14-64\pythonw.exe
[2026-03-14 19:16:29] [STDOUT] Jarvis Desktop Concept 1 - Version 1.02
[2026-03-14 19:16:29] [STDOUT] Hotkey: Ctrl + Alt + End
[2026-03-14 19:16:29] [STDERR] Traceback (most recent call last):
[2026-03-14 19:16:29] [STDERR]   File "C:\Jarvis\jarvis_desktop_test.py", line 44, in <module>
[2026-03-14 19:16:29] [STDERR]     raise SystemExit(main())
[2026-03-14 19:16:29] [STDERR]                      ~~~~^^
[2026-03-14 19:16:29] [STDERR]   File "C:\Jarvis\jarvis_desktop_test.py", line 36, in main
[2026-03-14 19:16:29] [STDERR]     raise RuntimeError("Jarvis test crash triggered intentionally")
[2026-03-14 19:16:29] [STDERR] RuntimeError: Jarvis test crash triggered intentionally
[2026-03-14 19:16:29] [INFO] Desktop renderer exited. exit_code=1
[2026-03-14 19:16:29] [WARN] Recovery attempt 1/3
[2026-03-14 19:16:30] [INFO] Starting desktop renderer process. attempt=2
[2026-03-14 19:16:30] [INFO] Child executable: C:\Users\anden\AppData\Local\Python\pythoncore-3.14-64\pythonw.exe
[2026-03-14 19:16:31] [STDOUT] Jarvis Desktop Concept 1 - Version 1.02
[2026-03-14 19:16:31] [STDOUT] Hotkey: Ctrl + Alt + End
[2026-03-14 19:16:31] [STDERR] Traceback (most recent call last):
[2026-03-14 19:16:31] [STDERR]   File "C:\Jarvis\jarvis_desktop_test.py", line 44, in <module>
[2026-03-14 19:16:31] [STDERR]     raise SystemExit(main())
[2026-03-14 19:16:31] [STDERR]                      ~~~~^^
[2026-03-14 19:16:31] [STDERR]   File "C:\Jarvis\jarvis_desktop_test.py", line 36, in main
[2026-03-14 19:16:31] [STDERR]     raise RuntimeError("Jarvis test crash triggered intentionally")
[2026-03-14 19:16:31] [STDERR] RuntimeError: Jarvis test crash triggered intentionally
[2026-03-14 19:16:31] [INFO] Desktop renderer exited. exit_code=1
[2026-03-14 19:16:31] [WARN] Recovery attempt 2/3
[2026-03-14 19:16:32] [INFO] Starting desktop renderer process. attempt=3
[2026-03-14 19:16:32] [INFO] Child executable: C:\Users\anden\AppData\Local\Python\pythoncore-3.14-64\pythonw.exe
[2026-03-14 19:16:32] [STDOUT] Jarvis Desktop Concept 1 - Version 1.02
[2026-03-14 19:16:32] [STDOUT] Hotkey: Ctrl + Alt + End
[2026-03-14 19:16:32] [STDERR] Traceback (most recent call last):
[2026-03-14 19:16:32] [STDERR]   File "C:\Jarvis\jarvis_desktop_test.py", line 44, in <module>
[2026-03-14 19:16:32] [STDERR]     raise SystemExit(main())
[2026-03-14 19:16:32] [STDERR]                      ~~~~^^
[2026-03-14 19:16:32] [STDERR]   File "C:\Jarvis\jarvis_desktop_test.py", line 36, in main
[2026-03-14 19:16:32] [STDERR]     raise RuntimeError("Jarvis test crash triggered intentionally")
[2026-03-14 19:16:32] [STDERR] RuntimeError: Jarvis test crash triggered intentionally
[2026-03-14 19:16:32] [INFO] Desktop renderer exited. exit_code=1
[2026-03-14 19:16:32] [ERROR] Crash log written: C:\Jarvis\logs\crash\crash_2026-03-14_19-16-32.txt
[2026-03-14 19:16:32] [INFO] Trying voice line 'Um..... Sir, I seem to be malfunctioning.' using voice --text --mode
[2026-03-14 19:16:39] [VOICE_STDERR] [mp3 @ 000001C47B28E700] Estimating duration from bitrate, this may be inaccurate
[2026-03-14 19:16:39] [VOICE_STDERR] Input #0, mp3, from 'C:/Users/anden/AppData/Local/Temp/tmp7759zmmc.mp3':
[2026-03-14 19:16:39] [VOICE_STDERR]   Duration: 00:00:04.94, start: 0.000000, bitrate: 48 kb/s
[2026-03-14 19:16:39] [VOICE_STDERR]   Stream #0:0: Audio: mp3 (mp3float), 24000 Hz, mono, fltp, 48 kb/s
[2026-03-14 19:16:39] [INFO] Voice line completed: Um..... Sir, I seem to be malfunctioning.
[2026-03-14 19:16:39] [INFO] Failure voice step 1/3 success=True line=Um..... Sir, I seem to be malfunctioning.
[2026-03-14 19:16:40] [INFO] Trying voice line 'Attempting restart.' using voice --text --mode
[2026-03-14 19:16:43] [VOICE_STDERR] [mp3 @ 0000022340234900] Estimating duration from bitrate, this may be inaccurate
[2026-03-14 19:16:43] [VOICE_STDERR] Input #0, mp3, from 'C:/Users/anden/AppData/Local/Temp/tmpu8yxyje9.mp3':
[2026-03-14 19:16:43] [VOICE_STDERR]   Duration: 00:00:02.23, start: 0.000000, bitrate: 48 kb/s
[2026-03-14 19:16:43] [VOICE_STDERR]   Stream #0:0: Audio: mp3 (mp3float), 24000 Hz, mono, fltp, 48 kb/s
[2026-03-14 19:16:43] [INFO] Voice line completed: Attempting restart.
[2026-03-14 19:16:43] [INFO] Failure voice step 2/3 success=True line=Attempting restart.
[2026-03-14 19:16:44] [INFO] Trying voice line 'Restart failed.' using voice --text --mode
[2026-03-14 19:16:47] [VOICE_STDERR] [mp3 @ 0000018B3C6D1F40] Estimating duration from bitrate, this may be inaccurate
[2026-03-14 19:16:47] [VOICE_STDERR] Input #0, mp3, from 'C:/Users/anden/AppData/Local/Temp/tmp6t1e6erg.mp3':
[2026-03-14 19:16:47] [VOICE_STDERR]   Duration: 00:00:02.18, start: 0.000000, bitrate: 48 kb/s
[2026-03-14 19:16:47] [VOICE_STDERR]   Stream #0:0: Audio: mp3 (mp3float), 24000 Hz, mono, fltp, 48 kb/s
[2026-03-14 19:16:47] [INFO] Voice line completed: Restart failed.
[2026-03-14 19:16:47] [INFO] Failure voice step 3/3 success=True line=Restart failed.
[2026-03-14 19:16:48] [INFO] Diagnostics process launched.
